<?xml version="1.0" standalone="no"?><!DOCTYPE svg PUBLIC "-//W3C//DTD SVG 1.1//EN" "http://www.w3.org/Graphics/SVG/1.1/DTD/svg11.dtd"><svg class="icon" width="200px" height="200.00px" viewBox="0 0 1024 1024" version="1.1" xmlns="http://www.w3.org/2000/svg"><path fill="#333333" d="M353.2 813.8c-16.4 4-28.8 18.2-28.8 35.8 0 20.8 16.8 37.6 37.6 37.6h300c20.8 0 37.6-16.8 37.6-37.6 0-17.6-12.4-31.8-28.8-35.8 127.6-60 216.2-189.2 216.2-339.2h-750c0 149.8 88.8 279.2 216.2 339.2zM849.4 316c-2-58.8-49.2-106.2-108-108.6-27-27.2-68.2-39-105.8-30-21-25.2-52.2-40.6-86.2-40.6-33.8 0-65.2 15.4-86.2 40.6-40.8-9.8-86 5.6-112.6 37.6-8.6-2-17.4-3-26.2-3-50.6 0-93.6 33.6-107.6 79.8-46.2 14-79.8 57-79.8 107.6h750c0-32-14-62.4-37.6-83.4z" /></svg>